<?xml version="1.0" encoding="UTF-8"?>
<svg id="a"
     xmlns="http://www.w3.org/2000/svg"
     viewBox="0 0 513.36 529.73">
    <defs>
        <style>.b{stroke-width:0px; fill:white;}</style>
    </defs>
    <path class="b"
          d="m99.53,111.46c15.56-.22,31.09,0,46.65-.08,17.16-.2,33.25,3.34,43.27,18.58,8.49,12.55,7.37,26.29,7.47,40.68.05,29.36.17,58.73.11,88.09.74,25.07-10.14,44.04-36.12,48.46-5.49.76-11.07.67-16.6.68-13.95.01-27.89.02-41.84.02-3.5,0-3.26.34-3.27-3.17.2-64.4-.61-128.92.33-193.26Zm31.87,98.05h.08c-.05,22.77-.21,45.54-.2,68.31.09,1.46,2.09.85,3.08,1,4.94,0,9.87,0,14.81,0,.87,0,1.73-.03,2.6-.07,7.71-.1,12.4-7.47,12.61-14.58.3-16.27-.01-32.55.06-48.83-.06-20.09.09-40.17-.1-60.26-.11-9.16-6.3-15.27-15.55-14.99-5.11-.08-10.22-.12-15.32-.17-.82,0-1.99-.11-1.99,1.03-.16,22.85,0,45.71-.06,68.57Z" />
    <path class="b"
          d="m391.66,177.23c.6.33.56.69.57,1.02.22,20.35.14,40.71.17,61.07-.12,12.76.7,25.81-2.93,38.2-8.03,27.83-36.44,37.27-62.52,29.38-18.45-5.05-30.15-22.62-30.54-41.33-.94-50.48-.2-101-.44-151.49,0-.78.04-1.56.1-2.33.07-.8,1.08-.75,1.7-.77,4.94-.02,9.87-.03,14.81-.03.42,0,.87-.04,1.24.44-.93,7.11-2.62,14.26-3.89,21.35-.36,1.87-.85,3.71-1.27,5.57-.23,1.49,2.05.85,2.94,1.01,4.5-.01,9.01-.04,13.51-.06.86.09,2.49-.36,2.77.75.37,40.35.05,80.73.29,121.09.13,5.94.94,12.61,5.89,16.57,4.52,3.86,11.06,4.08,16.49,2.18,5.86-2.16,9.28-8.2,9.8-14.19.8-10.1.33-20.27.57-30.39.05-3.53,2.6-6.36,3.99-9.46,8.74-16.31,17.66-32.43,26.75-48.55Z" />
    <path class="b"
          d="m340.84,243.1c8.22-36.08,16.71-72.39,24.16-108.74,1.38-6.96,3.13-13.85,4.26-20.85-1.55-1.49-6.14,1.59-8.39,1.8-8.41,2.68-16.82,5.37-25.23,8.06-2.09,0-12.09,5.77-10.19,1.15,7.07-35.66,13.54-71.49,20.88-107.06,19.44-5.72,38.93-11.2,58.34-17.01.98-.26,3.09-1.16,2.33.7-10.35,26.67-20.82,53.33-30.47,80.26,16.93-3.52,34.26-10.69,51.32-15.42,4.24-1.7-3.5,9.1-3.72,10.8-27.99,55.2-53.74,112.22-83.29,166.32Z" />
    <path class="b"
          d="m508.37,227.05c36.75,175.92-135.71,338-309.1,295.97-10.88-2.5-21.63-5.58-32.03-9.68-2.86-3.35,2.18-10.71,2.49-15.19,13.46,4.2,26.93,9.11,41.01,11.37,118.97,24.06,245.43-54.25,277.23-171.33,8.84-29.63,10.89-61.14,7.42-91.81-2.34-17.44-6.12-16.4,12.97-19.33Z" />
    <path class="b"
          d="m20.44,324.36c-4.88,1.38-10.04,2.07-15.05,2.74C-24.43,188.9,73.01,46.12,213.59,25.52c24.1-3.96,48.76-4.55,72.98-1.38,3.53,1.05,20.6,1.41,19.04,5.16-.93,2.28-.1,14.37-3.18,13.34-23.27-5.04-47.36-6.13-71.04-3.9C91.34,50.85-7.13,187.58,20.44,324.36Z" />
    <path class="b"
          d="m207.07,307.73c-.55-9.45-.84-19.53.11-28.86,15.98-1.37,38.91,7.34,38.33-17.1.55-50.19-.65-100.6.48-150.68,9.87-.41,19.77-.05,29.66-.18.78,0,1.69.01,1.7,1.07.31,18.54.02,37.07-.01,55.61-.15,33.43.31,66.88-.12,100.31-.37,6.18-1.66,12.18-4.27,17.83-11.17,26.66-42.18,22.53-65.86,22.01Z" />
    <path class="b"
          d="m114.75,354.82c-3.51,18.62-6.31,37.11-9.71,55.72-.31.95-.15,2.61-1.38,2.82-3.99-.07-8.07.37-12-.14-4.68-18.87-6.63-38.83-11.87-57.38-.24,18.17-.11,36.35-.22,54.53-.18.97.45,2.65-.76,3-3.62.15-7.27-.02-10.91,0-1.1-.01-1.33-.27-1.36-1.41.03-16.28.05-32.57-.16-48.85-.13-12.99-.12-25.98-.11-38.98.04-1.1.27-1.32,1.44-1.32,6.14.09,12.31-.26,18.44.11,4.39,20.19,7.73,40.64,11.91,60.91,4.86-19.65,6.4-40.79,10.89-60.8,6.39-.44,12.81-.21,19.22-.58,1.51.14.78,2.3,1.01,3.34.19,28.06.33,56.13.28,84.19-.16,1.1.53,3.13-.95,3.38-4.06.06-8.15.18-12.2.01-.37-.06-.63-.29-.68-.67-1.05-19.26.29-38.79-.87-57.91Z" />
    <path class="b"
          d="m419.29,429.03c-66.72,71.38-182.21,92.17-268.76,45.08-.1-2.12-.54-11.24.06-15.02,69.7,38.22,158.89,34.73,224.6-10.87,8.19-5.51,16.08-11.47,23.48-18.01,1.91-1.6,1.92-1.58,4.47-1.51,5.39.24,10.75.08,16.15.33Z" />
    <path class="b"
          d="m85.84,129.09c-.73,7.28,1.7,15.6-1.14,22.35-9.68,12.67-17.12,26.63-23.49,41.18-21.47,47.59-22.57,102.66-6.44,151.8-4.42.36-9.13.29-13.6.28-25.97-71.9-6.55-159.89,44.67-215.62Z" />
    <path class="b"
          d="m315.94,377.7c-.42,11.53.04,23.14-.25,34.69-.01.9-1.08,1-1.81.96-3.93-.07-7.83.26-11.75-.1-1.18-29.28-.35-58.71-.67-88.04,0-2.44.01-2.47,2.41-2.49,6.32-.06,12.64-.1,18.96-.11,5.94-.12,11.94.98,16.45,5.1,4.03,3.33,5.33,8.52,5.42,13.54-.13,6.11.63,12.37-.55,18.4-.79,3.62-2.69,6.52-5.82,8.58-1.15.95-3.25,1.34-.82,2.43,6.34,3.27,7.71,10.84,7.52,17.36.08,7.27.14,14.55.21,21.82-.16.96.5,2.63-.62,3.05-4.35.11-8.78.1-13.12-.09-.62-.55-.51-1.18-.52-1.77-.1-8.31-.15-16.62-.17-24.94.74-8.98-8.07-10.1-14.85-8.4Zm-.09-13.98c.03.42.42.82.84.84,2.51.11,5.01.18,7.51-.1,4.07-.36,6.13-3.94,5.92-7.76.04-4.67.04-9.34.02-14,.04-3.29-1.57-6.64-5.12-7.06-2.91-.45-5.86-.31-8.79-.13-.19.01-.48.3-.51.49" />
    <path class="b"
          d="m397.25,367.97c0,8.14-.02,16.28,0,24.42.01,3.07-.53,6.04-1.58,8.9-3.69,11.54-17.54,15.42-28.28,12.11-18.77-5.3-13.33-27.94-14.18-42.76-.01-8.31-.01-16.63-.03-24.94-.45-9,2.93-19.14,12.14-22.31,12.15-5.11,29.75.16,31.42,14.72,1.05,9.89.22,19.91.47,29.85h.03Zm-14.4-24.19c.54-4.43-2.05-8.89-6.83-8.89-10.81,0-7.79,12.51-8.33,19.93.03,12.3.03,24.6.04,36.9.02,2.15-.09,4.39.9,6.37,2.64,6.23,12.41,5.32,13.86-1.33.91-9.36.12-18.88.37-28.29" />
    <path class="b"
          d="m322,65.18c-2.14,8.78,2.25,13.81-8.09,9.49-15.78-5.23-32.29-8.08-48.88-9.04-41.51-2.39-83.89,8.41-119.17,30.41-6.92,3.54-15.69,1.14-23.27,1.46-.6-.08-1.29.06-1.68-.38-.11-.67.43-1.03.92-1.37,45.88-34.64,105.58-50.08,162.51-42.17,4.93,1.01,41.56,5.97,37.6,11.6h.06Z" />
    <path class="b"
          d="m226.43,413.23c-4.84-11.25-9.11-22.72-13.64-34.09-.19-.53-.24-1.11-.91-1.25-1.25,2.85-3.87,5.34-3.95,8.57.02,8.67.18,17.42.05,26.07-.41.52-.84.56-1.27.57-3.9.05-7.79.11-11.69.14-1.85.14-1.19-2.13-1.34-3.31-.06-28.15-.13-56.3-.15-84.44,0-2.44-.03-2.48,2.39-2.5,3.29-.02,6.58-.07,9.87-.1.67.04,1.76-.14,2.06.61.31,4.65-.04,9.35.03,14.02.15,7.85-.39,15.78.16,23.58.95-.17,1.01-1.33,1.49-2.03,2.6-5.57,5.15-11.16,7.79-16.71,3.15-6.43,6.08-13.01,9.46-19.31,4.57-.35,9.32-.39,13.89,0-4.95,11.74-11.29,23.14-16.53,34.86-.73,2.18-2.74,4.41-2,6.8,5.71,16.31,13.12,32.14,18.5,48.49-3.1.55-11.95.15-14.23.05Z" />
    <path class="b"
          d="m151,322.85c6.73-.38,13.51.02,20.27-.07,1.23-.17,1.85.68,1.92,1.83,3.77,24.01,7.54,48.03,11.48,72.01,2.24,19.33,7.73,16.46-9.25,16.46-1.02,0-2.08.05-2.17-1.2-4.19-21.45,1.65-15.25-20.55-15.99-.37.05-.66.28-.73.64-.96,5.1-1.67,10.25-2.62,15.35-.28,1.25-.5,1.49-1.71,1.5-3.92-.1-7.85.32-11.74-.17,4.98-30.07,9.99-60.29,15.11-90.35Zm10.17,18.22c-.8.31-.77.95-.86,1.52-2.04,13.08-4.14,26.16-6.26,39.23-.46,1.37-.11,2.24,1.49,1.99,3.9,0,7.79.02,11.69-.04.42,0,.86-.03,1.18-.64-2.44-13.91-4.62-28.04-7.25-42.05Z" />
    <path class="b"
          d="m259.73,396.37c-1.11,5.24-1.91,10.67-2.88,15.96-.13.76-.43,1.03-1.23,1.03-3.8-.18-7.69.35-11.43-.3,5.24-30.01,9.41-60.18,14.42-90.08,7.09-.23,14.22-.25,21.3-.05.72.22.75,1.1.88,1.72.69,4.45,1.36,8.9,2.05,13.35,3.44,25.12,8.64,50.13,12.47,75.07-4.5.45-9.16.14-13.69.04-.37-.07-.65-.29-.71-.65-.68-4.88-1.63-9.73-2.47-14.59-.06-1.21-.65-2.29-2.03-2.06-4.76,0-9.53.02-14.29.04-.77,0-1.57-.04-2.39.52Zm8.89-55.73c-2.13,11.09-3.38,22.16-5.23,33.29-.43,2.82-.89,5.63-1.32,8.45-.06.4-.25.85.28,1.33,4.36-.15,9.31.72,13.59-.3-2.37-14.25-4.17-28.69-7.32-42.78Z" />
    <path class="b"
          d="m428.08,394.92c.55-.11.48-.59.54-.91.96-5.36,1.76-10.76,2.63-16.14,2.93-18.21,5.52-36.48,8.75-54.64.33-.09.66-.25.98-.25,3.72,0,7.44.02,11.17.04.4-.03.94.32.91.71-1.96,13.35-4.37,26.63-6.62,39.94-2.89,16.48-5.59,32.98-8.87,49.39-1.36.55-2.86.33-4.3.37-4.76,0-9.52-.01-14.28-.04-.59,0-1.22.11-1.84-.45-5.05-29.98-9.4-60.08-15-89.97,4.84-.22,9.46-.21,14.27-.32.15,0,.31.14.58.27" />
    <path class="b"
          d="m482.89,258.45c2.33,32.23-3.81,65.95-16.58,95.74-1.37.19-.72-2.37-.91-3.26.1-12.44-.78-24.96-.16-37.36,3.62-17.12,4.63-34.68,4.23-52.14-.03-3.16-.24-2.9,2.93-2.95,3.47,0,7.06-.23,10.5-.03Z" />
    <path class="b"
          d="m433.47,278.94c.37.04.65.25.72.62.25,8.8-.05,17.64,0,26.45.22,1.88-1.06,1.93-2.53,1.85-7.87,0-15.74,0-23.61-.02-2.43,0-2.44-.02-2.49-2.4-.14-7.87-.29-15.74-.41-23.61-.05-3.16-.23-2.99,2.9-2.98" />
</svg>